<svg width="512" height="512" viewBox="0 0 512 512" fill="none" xmlns="http://www.w3.org/2000/svg">
<rect width="512" height="512" rx="128" fill="#3b82f6"/>
<path d="M181 376V210.625C181 202.375 184 195.375 190 189.625C196 183.875 203.125 181 211.375 181H376C384.25 181 391.312 183.937 397.187 189.812C403.062 195.687 406 202.75 406 211V331L331 406H211C202.75 406 195.687 403.062 189.812 397.187C183.937 391.312 181 384.25 181 376ZM106.375 169.75C104.875 161.5 106.5 154.062 111.25 147.437C116 140.812 122.5 136.75 130.75 135.25L293.5 106.375C301.75 104.875 309.187 106.5 315.812 111.25C322.437 116 326.5 122.5 328 130.75L331.75 151H301L298.375 136L136 164.875L151 249.625V354.25C147 352 143.562 349 140.687 345.25C137.812 341.5 136 337.25 135.25 332.5L106.375 169.75ZM211 211V376H316V316H376V211H211Z" fill="white"/>
</svg>
